REM DIRINDEX 1\2,1\3,1\4,1\5,1\6
REM DIRNAME cjc129,folder01,folder02,folder03,folder04,folder05
TITLE ""
FILE "DISC5Track04.mp3" MP3
  TRACK 01 AUDIO
    TITLE "0:"
    INDEX 01 00:00:00
  TRACK 02 AUDIO
    TITLE "2:cjc129_3955"
    INDEX 01 00:03:14
  TRACK 03 AUDIO
    TITLE "0:"
    INDEX 01 00:12:56
  TRACK 04 AUDIO
    TITLE "3:cjc129_3956"
    INDEX 01 00:13:71
  TRACK 05 AUDIO
    TITLE "0:"
    INDEX 01 00:15:23
  TRACK 06 AUDIO
    TITLE "5:cjc129_3957"
    INDEX 01 00:15:54
  TRACK 07 AUDIO
    TITLE "0:"
    INDEX 01 00:17:27
  TRACK 08 AUDIO
    TITLE "4:cjc129_3958"
    INDEX 01 00:18:15
  TRACK 09 AUDIO
    TITLE "0:"
    INDEX 01 00:19:44
  TRACK 10 AUDIO
    TITLE "6:cjc129_3959"
    INDEX 01 00:19:73
  TRACK 11 AUDIO
    TITLE "0:"
    INDEX 01 00:24:35
  TRACK 12 AUDIO
    TITLE "3:cjc129_3960"
    INDEX 01 00:26:15
  TRACK 13 AUDIO
    TITLE "0:"
    INDEX 01 00:27:39
  TRACK 14 AUDIO
    TITLE "5:cjc129_3961"
    INDEX 01 00:27:69
  TRACK 15 AUDIO
    TITLE "0:"
    INDEX 01 00:30:65
  TRACK 16 AUDIO
    TITLE "4:cjc129_3962"
    INDEX 01 00:31:57
  TRACK 17 AUDIO
    TITLE "0:"
    INDEX 01 00:33:05
  TRACK 18 AUDIO
    TITLE "6:cjc129_3963"
    INDEX 01 00:33:38
  TRACK 19 AUDIO
    TITLE "0:"
    INDEX 01 00:38:14
  TRACK 20 AUDIO
    TITLE "3:cjc129_3964"
    INDEX 01 00:39:64
  TRACK 21 AUDIO
    TITLE "0:"
    INDEX 01 00:43:21
  TRACK 22 AUDIO
    TITLE "5:cjc129_3965"
    INDEX 01 00:43:52
  TRACK 23 AUDIO
    TITLE "0:"
    INDEX 01 00:44:50
  TRACK 24 AUDIO
    TITLE "4:cjc129_3966"
    INDEX 01 00:45:39
  TRACK 25 AUDIO
    TITLE "0:"
    INDEX 01 00:48:71
  TRACK 26 AUDIO
    TITLE "6:cjc129_3967"
    INDEX 01 00:49:25
  TRACK 27 AUDIO
    TITLE "0:"
    INDEX 01 00:53:53
  TRACK 28 AUDIO
    TITLE "3:cjc129_3968"
    INDEX 01 00:55:30
  TRACK 29 AUDIO
    TITLE "0:"
    INDEX 01 00:56:47
  TRACK 30 AUDIO
    TITLE "5:cjc129_3969"
    INDEX 01 00:57:05
  TRACK 31 AUDIO
    TITLE "0:"
    INDEX 01 01:00:00
  TRACK 32 AUDIO
    TITLE "4:cjc129_3970"
    INDEX 01 01:00:64
  TRACK 33 AUDIO
    TITLE "0:"
    INDEX 01 01:02:06
  TRACK 34 AUDIO
    TITLE "6:cjc129_3971"
    INDEX 01 01:02:40
  TRACK 35 AUDIO
    TITLE "0:"
    INDEX 01 01:06:45
  TRACK 36 AUDIO
    TITLE "3:cjc129_3972"
    INDEX 01 01:08:19
  TRACK 37 AUDIO
    TITLE "0:"
    INDEX 01 01:09:59
  TRACK 38 AUDIO
    TITLE "5:cjc129_3973"
    INDEX 01 01:10:18
  TRACK 39 AUDIO
    TITLE "0:"
    INDEX 01 01:15:27
  TRACK 40 AUDIO
    TITLE "4:cjc129_3974"
    INDEX 01 01:16:16
  TRACK 41 AUDIO
    TITLE "0:"
    INDEX 01 01:17:59
  TRACK 42 AUDIO
    TITLE "6:cjc129_3975"
    INDEX 01 01:18:17
  TRACK 43 AUDIO
    TITLE "0:"
    INDEX 01 01:22:11
  TRACK 44 AUDIO
    TITLE "3:cjc129_3976"
    INDEX 01 01:23:65
  TRACK 45 AUDIO
    TITLE "0:"
    INDEX 01 01:27:18
  TRACK 46 AUDIO
    TITLE "5:cjc129_3977"
    INDEX 01 01:27:50
  TRACK 47 AUDIO
    TITLE "0:"
    INDEX 01 01:31:12
  TRACK 48 AUDIO
    TITLE "4:cjc129_3978"
    INDEX 01 01:32:02
  TRACK 49 AUDIO
    TITLE "0:"
    INDEX 01 01:35:29
  TRACK 50 AUDIO
    TITLE "6:cjc129_3979"
    INDEX 01 01:35:63
  TRACK 51 AUDIO
    TITLE "0:"
    INDEX 01 01:40:17
  TRACK 52 AUDIO
    TITLE "3:cjc129_3980"
    INDEX 01 01:41:69
  TRACK 53 AUDIO
    TITLE "0:"
    INDEX 01 01:43:21
  TRACK 54 AUDIO
    TITLE "5:cjc129_3981"
    INDEX 01 01:43:51
  TRACK 55 AUDIO
    TITLE "0:"
    INDEX 01 01:45:47
  TRACK 56 AUDIO
    TITLE "4:cjc129_3982"
    INDEX 01 01:46:41
  TRACK 57 AUDIO
    TITLE "0:"
    INDEX 01 01:47:68
  TRACK 58 AUDIO
    TITLE "6:cjc129_3983"
    INDEX 01 01:48:22
  TRACK 59 AUDIO
    TITLE "0:"
    INDEX 01 01:52:65
  TRACK 60 AUDIO
    TITLE "3:cjc129_3984"
    INDEX 01 01:54:42
  TRACK 61 AUDIO
    TITLE "0:"
    INDEX 01 01:55:65
  TRACK 62 AUDIO
    TITLE "5:cjc129_3985"
    INDEX 01 01:56:22
  TRACK 63 AUDIO
    TITLE "0:"
    INDEX 01 02:00:27
  TRACK 64 AUDIO
    TITLE "4:cjc129_3986"
    INDEX 01 02:01:17
  TRACK 65 AUDIO
    TITLE "0:"
    INDEX 01 02:02:38
  TRACK 66 AUDIO
    TITLE "6:cjc129_3987"
    INDEX 01 02:02:71
  TRACK 67 AUDIO
    TITLE "0:"
    INDEX 01 02:07:00
